<?xml version="1.0" encoding="utf-8"?>
<!-- Generator: Adobe Illustrator 26.0.1, SVG Export Plug-In . SVG Version: 6.00 Build 0)  -->
<svg version="1.1" id="Layer_1" xmlns="http://www.w3.org/2000/svg" xmlns:xlink="http://www.w3.org/1999/xlink" x="0px" y="0px"
	 width="202px" height="53px" viewBox="0 0 202 53" style="enable-background:new 0 0 202 53;" xml:space="preserve">
<style type="text/css">
	.st0{fill:#FFFFFF;}
</style>
<g>
	<path class="st0" d="M38.7,25c-1.5-1.2-1.6-2.7-0.4-4.4c2.5-3.7,1.8-9.6-0.8-13.3c-3.2-4.5-7.6-5.4-12.6-5.6
		c-3.1-0.2-6.3-0.8-9.4-0.8C12.4,0.9,9.2,1,6.1,1C2.6,1,0.9,2.4,0.9,5.9c0,3.4,0.9,6.8,0.9,10.2c0,3.4,0,6.8,0,10.2
		c0,3.2-0.9,6.5-0.8,9.7c0,3.3-0.2,6.5-0.3,9.7c-0.1,3.8,1.9,6.2,6.3,6.1c5.8-0.1,11.6,0.7,17.4,0.1c3.2-0.3,6.2-1.5,9.2-2.5
		c3.2-1.1,5.3-3.3,7.2-5.6c2-2.5,3.6-5,3.5-8.3C44.4,31.2,42.3,27.8,38.7,25z M7.5,10.6c0-1.8,1.3-2.7,3.2-2.7
		c4.1,0,8.3-0.7,12.5-0.4c2.1,0.1,4.5,0.2,6.5,1c2.9,1.1,3.7,4.3,3.4,6.5c-0.3,2.1-2.5,3.9-4.9,4.3c-3.3,0.6-6.7-0.1-9.5,0.1
		c-3,0-5.4,0.8-7.8,0.9C9,20.4,7.3,18.9,7.4,17C7.4,14.9,7.5,12.8,7.5,10.6z M37.3,38.6c-1.2,3-4.6,4-7.5,4.7
		c-3.3,0.8-6.8,1.4-10.2,1.4c-3,0-5.9,0-8.9,0.1c-1.8,0-2.6-1.4-2.6-3.2c0-3.9,0-7.9-0.1-11.8c0-1.9,0.9-2.5,2.8-2.5
		c2.6,0.1,5.1-0.9,7.7-0.9c4.4,0.1,9.1-0.4,13.4,1.3C36.3,29.3,38.9,34.4,37.3,38.6z"/>
	<path class="st0" d="M93.8,36.1c-1.6-3.2-2.6-6.8-4.2-10c-1.9-3.8-3.8-7.5-5.7-11.3C82,11,80.3,7.2,78.3,3.5
		c-1.9-3.5-6.2-3.7-7.9-0.2c-1.8,3.5-3.6,7-5.4,10.6c-1.8,3.5-3.6,7-5.4,10.6c-1.8,3.5-3.5,7.1-5.2,10.7c-1.8,3.5-2.6,7.6-4.4,11.1
		c-1.3,2.6-1,4.6,1.4,5.7c1.8,0.9,3.7-0.3,4.9-2.7c1.7-3.4,3.6-6.8,5.3-10.3c0.7-1.6,1.7-1.4,3.4-1.4c3.3,0,6.6-0.1,9.9-0.1
		c3.3,0,6.6-1.3,9.9-1.3c1.7,0,2.8,1,3.6,2.7c1.7,3.7,3.5,7.5,5.4,11.1c0.8,1.6,2.6,2.5,4.2,2.1c1.6-0.5,3.3-1.9,3.3-3.8
		c0-1.1-0.9-2.1-1.4-3.1C98,42.1,95.4,39.3,93.8,36.1z M80.1,28.8c-1.8,0-3.7,1.1-5.5,1.1s-3.7-0.7-5.5-0.8c-1.8-0.1-2.5-1-1.7-2.6
		c1.8-3.8,3.8-7.4,5.8-11.1c1-1.8,1.4-1.3,2.4,0.4c2.1,3.5,3.8,7.1,5.4,10.8C81.9,28.7,82.2,28.8,80.1,28.8z"/>
	<path class="st0" d="M112.2,21c1.6-6.1,4.2-11.3,10.6-13.1c3.1-0.9,6.3,0.1,9.4-0.1c3.5-0.2,6.8,0.7,9.7,2.4c1.3,0.8,2.7,1.5,4,2.4
		c2,1.3,2.7,1.4,4.1-0.2c1.5-1.6,1.5-2.8,0.3-4.4c-2.5-3.2-5.9-4.8-9.6-6.1c-5.7-2-11.5-2.6-17.5-1.2C117,2.1,112.5,5.4,109,10.8
		c-2.4,3.7-4.5,7.2-5.1,11.3c-0.6,4.1-0.9,8.4,0.1,12.7c0.9,3.8,2.8,7,5,9.8c2.2,2.7,5.2,4.5,8.9,6c3.7,1.6,7.3,2.3,11,2.4
		c3.8,0.2,7.3-0.6,11.1-1.8c4.2-1.3,7.6-3,10.3-6.6c1.2-1.5,1.3-2.6,0-3.9c-1.5-1.5-2.8-1.8-5.1-0.3c-1.7,1.1-3.3,2.1-5.2,3
		c-4.4,2.1-8.6,3.1-13.1,3c-6.1-0.2-11.9-4.5-14.2-10.3c-1.2-3-0.8-6-0.6-8.3C112.1,24.9,111.6,23,112.2,21L112.2,21z"/>
	<path class="st0" d="M200.1,45.2c-2.5-3.1-5.1-6-7.6-9.1s-4.8-6.3-7.3-9.3c-1.9-2.3-2.9-3-0.9-5.1c3.3-3.5,7.5-6.2,10.8-9.7
		c1.6-1.8,2.6-4.1,4-6c1.6-2.2,0.9-3.7-1.6-4.6c-2.4-0.9-4.2-0.3-5.5,1.1c-3.6,3.9-6.5,8.4-10,12.3c-3.6,3.9-7,7.9-10.6,11.8
		c-0.7,0.8-2.2,2.7-3.3,2.3c-1.4-0.5-0.4-3-0.4-4.2c0-6.4,0.1-12.8,0.1-19.2c0-2.3-1.7-3.9-3.5-4.5c-1.9-0.6-2.2,0.9-3.2,2.1
		c-0.7,0.8-0.9,1.4-0.9,2.5c0,3.4-0.6,6.9-0.6,10.3s1,6.9,1,10.3c0,3.5-0.9,7.1-0.9,10.6c0,3.5-0.1,7.1-0.1,10.6
		c0,2.2,2.4,4.8,4.2,4.8c1.8-0.1,4.2-2.6,4.2-4.7c0-1.8,0.4-3.6,0.3-5.4c0-0.8-1.1-2-0.6-2.6c2.6-2.9,5.2-5.8,8-8.6
		c0.9-0.9,2.8-0.5,3.7,0.6c2.8,3.4,5.9,6.4,8.7,9.8c2.4,2.9,3.6,6.7,6.1,9.5c2,2.2,5.6,1.6,6.9-1C201.8,48.3,201,46.3,200.1,45.2z"
		/>
</g>
</svg>
