<?xml version="1.0" encoding="iso-8859-1"?>
<!-- Generator: Adobe Illustrator 23.1.0, SVG Export Plug-In . SVG Version: 6.00 Build 0)  -->
<svg version="1.1" id="Layer_1" xmlns="http://www.w3.org/2000/svg" xmlns:xlink="http://www.w3.org/1999/xlink" x="0px" y="0px"
	 width="158.87px" height="140.478px" viewBox="0 0 158.87 140.478" enable-background="new 0 0 158.87 140.478"
	 xml:space="preserve">
<path fill="#FFFFFF" d="M118.176,2.685c11.199-1.073,18.701,3.784,21.282,14.491c5.78,23.98,11.314,48.034,16.152,72.218
	c1.635,8.172-3.289,14.559-10.175,19.075c-6.805,4.463-14.506,6.68-22.27,8.554c-27.185,6.56-54.391,13.029-81.626,19.379
	c-18.75,4.372-26.564-0.208-30.996-18.58c-6.082-25.21-8.686-50.824-7.182-76.75C4.362,23.821,6.583,21.3,23.786,19.222
	c27.099-3.273,53.585-9.759,80.373-14.649C108.792,3.727,113.502,3.304,118.176,2.685z M30.416,91.325
	c-6.967-1.919-7.843,1.571-6.611,6.977c1.046,4.592,2.452,9.138,3.056,13.788c1.031,7.93,5.102,8.692,12.08,6.955
	c27.068-6.741,54.28-12.902,81.398-19.441c19.236-4.639,20.176-6.093,16.439-25.114c-0.67-3.411,0.52-10.52-4.653-8.865
	c-5.995,1.918-15.303-3.594-18.103,8.45c-4.016,17.275-17.51,25.841-34.497,21.125C63.054,90.626,46.424,94.804,30.416,91.325z
	 M108.429,22.018c-5.491-1.914-9.679-0.661-13.821,0.096c-17.801,3.252-35.51,7.125-53.403,9.736
	c-21.803,3.181-22.488,3.474-21.631,26.084c0.014,0.362,0.024,0.724,0.041,1.086C20.551,79.07,21.692,80,41.544,77.958
	c3.55-0.365,5.581-0.652,5.975-5.383c1.324-15.919,11.077-28.726,26.206-29.798C89.126,41.687,98.521,33.617,108.429,22.018z
	 M101.463,68.81c0.349-13.701-14.651-22.053-28.208-16.962c-8.095,3.04-15.283,8.401-14.914,17.897
	c0.345,8.897,8.672,10.441,15.623,12.491c5.295,1.561,10.592,2.21,15.953,0.207C97.071,79.77,101.013,74.726,101.463,68.81z
	 M113.773,48.512c4.559-1.354,7.354-4.306,7.818-9.022c0.387-3.942-1.935-8.633-5.015-8.182c-4.087,0.598-8.562,4.407-8.984,9.09
	C107.312,43.515,110.161,46.804,113.773,48.512z"/>
<g>
</g>
<g>
</g>
<g>
</g>
<g>
</g>
<g>
</g>
<g>
</g>
<g>
</g>
<g>
</g>
<g>
</g>
<g>
</g>
<g>
</g>
<g>
</g>
<g>
</g>
<g>
</g>
<g>
</g>
</svg>
