<?xml version="1.0" encoding="utf-8"?>
<!-- Generator: Adobe Illustrator 26.0.1, SVG Export Plug-In . SVG Version: 6.00 Build 0)  -->
<svg version="1.1" id="Layer_1" xmlns="http://www.w3.org/2000/svg" xmlns:xlink="http://www.w3.org/1999/xlink" x="0px" y="0px"
	 width="200px" height="200px" viewBox="0 0 200 200" style="enable-background:new 0 0 200 200;" xml:space="preserve">
<style type="text/css">
	.st0{fill:#FFFFFF;}
</style>
<g>
	<path class="st0" d="M83.5,72.2c-0.8-0.3-1.6-0.6-2.4-0.8c-0.8-0.3-1.5-0.5-2.2-0.8c-2.2-0.9-4.8-0.9-7.2,0.1
		c-2.2,0.9-4.1,2.5-6,4.9c-0.5,0.6-1,1.4-1.4,2.3c-0.4,1.1-0.5,2.3-0.5,3.3c0,1.2,0,2.4,0.1,3.6c0.1,1,0.2,2.1,0.7,3.2
		c0.4,0.9,1,1.6,1.6,2.2c1.1,1.3,2.4,2.7,4.1,3.6c2.2,1.2,4.7,1.4,7.1,1.4c0.2,0,0.4,0,0.5,0c2,0,4.1-0.1,6.1-0.6
		c2.4-0.6,4.4-1.7,5.8-3.3c1-1.1,1.6-2.4,2.1-3.5c0.5-1.1,1.2-2.5,1.2-4.1c0-1.4-0.5-2.6-0.9-3.3C90.4,76.7,87.3,73.8,83.5,72.2z
		 M89.7,83.6c0,0.8-0.4,1.8-0.9,2.7c-0.5,1-1,2-1.6,2.8c-1.1,1.3-2.8,2-4.1,2.3c-1.7,0.4-3.5,0.5-5.3,0.5c-2.2,0-4.3,0-6-0.9
		c-1.2-0.7-2.2-1.8-3.2-2.9c-0.4-0.5-0.8-0.9-1-1.4c-0.3-0.5-0.3-1.3-0.4-2c-0.1-1.1-0.1-2.3-0.1-3.4c0-0.8,0.1-1.5,0.3-2.2
		c0.2-0.5,0.5-1,0.9-1.4c1.5-1.9,3-3.2,4.6-3.9c0.8-0.3,1.7-0.5,2.5-0.5c0.5,0,0.9,0.1,1.4,0.2c0,0,0,0.1,0,0.1
		c-0.1,3.4,0.1,6.8,0.4,10.1c0.1,0.9,0.8,1.5,1.7,1.5c0,0,0.1,0,0.1,0c0.9-0.1,1.6-0.9,1.5-1.8c-0.2-2.9-0.4-5.9-0.4-8.8
		c0.7,0.2,1.4,0.5,2.1,0.7c3,1.2,5.6,3.6,6.9,6.4C89.6,82.5,89.7,83.1,89.7,83.6z"/>
	<path class="st0" d="M151.4,72.3c-2.7-1.3-5.7-1.6-8.6-1.7c-3.7-0.2-8,0-11.3,2.4c-1.2,0.8-2,1.8-2.4,2.8c-0.7,1.7-0.5,3.6-0.1,5.1
		c0.4,2,1,4.4,2.5,6.3c2.6,3.4,7,5.4,11.3,5.4c0.4,0,0.8,0,1.2-0.1c2.3-0.2,4.6-0.9,6.7-1.6c1.5-0.5,3.1-1.1,4.2-2.4
		c1-1.2,1.5-2.6,1.8-3.9c0.4-1.6,0.8-3.3,0.6-5.1C156.9,76.7,154.6,73.9,151.4,72.3z M153.5,83.9c-0.3,1-0.5,1.9-1.1,2.5
		c-0.6,0.7-1.7,1.1-2.8,1.4c-2.2,0.7-4.1,1.2-6,1.4c-3.6,0.3-7.4-1.3-9.6-4.1c-1-1.3-1.5-3.1-1.8-4.9c-0.2-1.1-0.4-2.3-0.1-3.2
		c0.2-0.5,0.6-1,1.3-1.4c2.1-1.5,4.7-1.8,7.5-1.8c0.6,0,1.2,0,1.8,0c2.9,0.1,5.2,0.4,7.3,1.4c1.7,0.8,3.7,2.5,4,4.8
		C154.1,81.3,153.8,82.7,153.5,83.9z"/>
	<path class="st0" d="M144,77c-0.4-0.8-1.4-1.2-2.2-0.8c-0.8,0.4-1.2,1.4-0.8,2.2c0.8,1.6,1.5,3.3,2.2,4.9c0,0,0,0.1,0,0.1
		c0,0.9,0.7,1.7,1.6,1.7c0,0,0,0,0,0c0.6,0,1.1-0.3,1.5-0.8c0.4-0.5,0.4-1.2,0.2-1.8C145.7,80.7,144.9,78.8,144,77z"/>
	<path class="st0" d="M23.4,59c2.5,11,4.3,22.5,0.6,32.9c-0.4,1-0.8,1.9-1.3,2.9c-0.7,1.6-1.5,3.2-1.9,5c-1.4,6-1.5,11-1.5,16.9
		c0,1.1,0.8,1.9,1.9,1.9c0,0,0,0,0,0c1,0,1.9-0.8,1.9-1.9c0.1-5.9,0.1-10.5,1.4-16c0.3-1.4,1-2.8,1.7-4.2c0.5-1,1-2.1,1.4-3.2
		c4.1-11.3,2.2-23.5-0.4-35c-0.3-1.4-0.7-2.8-1-4.3c-2.3-9.5-4.6-19.4-3.5-29c0.5-4.5,1.7-8.8,3.6-12.9c1.7-3.8,3.6-6.1,6-7.2
		c1.1-0.5,2.4-0.8,3.9-0.9c6.5-0.3,12.9,4.2,19.5,13.8c0.4,0.5,0.7,1,1.1,1.5c4.8,7,10.3,14.9,18.9,17.5c2.7,0.8,5.5,1,8.2,1.2
		l32.5,2.1c3,0.2,6.1,0.4,9.3,0c7.4-1,14.6-5.2,22.3-13c1.8-1.8,3.6-3.8,5.3-5.6c3.8-4.2,7.7-8.5,12.2-11.8c1.6-1.2,3.6-2.5,5.7-2.4
		c3.3,0.1,6,3.7,7.1,7.2c2.4,7.4,1.1,15.6-0.1,22.9l-4.8,30.7c-0.5,3.2-1,6.6-0.8,10c0.2,3.9,1.3,7.7,2.4,11.3
		c0.8,2.7,1.7,5.4,2.7,8c2.5,7,5,14.3,5,21.5c0,1.1,0.9,1.9,1.9,1.9s1.9-0.9,1.9-1.9c0-7.9-2.7-15.5-5.2-22.8
		c-0.9-2.6-1.8-5.2-2.6-7.8c-1-3.4-2.1-6.9-2.3-10.4c-0.2-3,0.3-6.2,0.8-9.2l4.8-30.7c1.2-7.7,2.6-16.5-0.1-24.7
		c-1.4-4.5-5.1-9.8-10.7-9.9c-3.2-0.1-6,1.7-8,3.2c-4.8,3.5-8.9,8-12.8,12.3c-1.7,1.8-3.4,3.7-5.2,5.5c-7.1,7.3-13.5,11-20.1,11.9
		c-2.8,0.4-5.7,0.2-8.6,0l-32.5-2.1c-2.5-0.2-5-0.3-7.4-1c-7.3-2.2-12.2-9.2-16.8-16c-0.4-0.5-0.7-1-1.1-1.5
		C51.1,4.7,43.7-0.3,35.8,0c-2,0.1-3.8,0.5-5.4,1.3c-3.1,1.5-5.6,4.5-7.7,9c-2.1,4.5-3.4,9.2-3.9,14.1c-1.1,10.3,1.3,20.5,3.6,30.3
		C22.7,56.2,23,57.6,23.4,59z"/>
	<path class="st0" d="M11.2,143.6c0,0.4,0,0.7,0,0.8c0.2,0.6,0.5,1,0.9,1.3c0.4,0.3,0.9,0.4,1.5,0.4c1,0,1.9-0.2,2.9-0.6
		c0.9-0.4,1.9-0.9,2.8-1.4c0.9-0.5,1.8-1.1,2.6-1.8c0.8-0.7,1.6-1.3,2.3-1.8c-0.1,0.7-0.1,1.3,0,2c0.1,0.6,0.3,1.2,0.5,1.6
		c0.3,0.5,0.6,0.8,1.1,1.1c0.5,0.3,1.2,0.4,2,0.4c0.5,0,1.1-0.1,1.7-0.2c0.6-0.1,1.3-0.3,1.9-0.5c0.7-0.2,1.3-0.4,1.9-0.7
		c0.6-0.2,1.2-0.5,1.7-0.8c0.3-0.1,0.8-0.3,1.4-0.7c0.7-0.4,1.4-0.7,2.1-1.1c0.6-0.3,1.2-0.6,1.7-0.9c0.1,0.5,0.4,1,0.7,1.5
		c0.5,0.7,1,1.3,1.7,1.8c0.7,0.5,1.5,0.8,2.4,1c0.9,0.2,2,0.2,3,0c0.3,0,1-0.2,2-0.5c1-0.4,2-0.8,3.1-1.3c1.1-0.5,2-1.1,2.9-1.7
		c0.1-0.1,0.2-0.2,0.3-0.2c-0.2,0.7-0.4,1.4-0.6,2.3c0,0.7,0.4,1.1,1.2,1.1c0.4,0,0.7,0,1-0.1c0.3-0.1,0.5-0.3,0.8-0.7
		c0.3-0.9,0.5-1.8,0.8-2.5c0.3-0.7,0.6-1.5,1-2.2c0.1,0,0.1-0.1,0.2-0.2c0.1-0.1,0.1-0.1,0.1-0.1c-0.3,1-0.1,2,0.4,2.9
		c0.5,0.9,1.1,1.7,2,2.4c0.8,0.7,1.7,1.2,2.7,1.6c1,0.4,1.9,0.6,2.7,0.6c0.6,0,1.1-0.1,1.6-0.4c0.5-0.2,1-0.5,1.5-0.8
		c0.3-0.1,1-0.2,1.9-0.4c0.9-0.2,1.9-0.5,2.9-0.7c1-0.3,2-0.5,2.9-0.7c0.9-0.2,1.5-0.4,1.9-0.5c0.4-0.1,1-0.3,1.8-0.6
		c0.5-0.2,0.9-0.3,1.3-0.6c0.5,1.8,1.3,3.1,2.6,3.7c1.3,0.6,2.9,0.9,4.8,0.9c0.6,0,1.4-0.1,2.3-0.2c0.9-0.1,1.8-0.4,2.8-0.7
		c1-0.3,2-0.7,3-1.1c1-0.4,1.9-0.9,2.7-1.5c0.3-0.2,0.5-0.4,0.7-0.6c0.1,0,0.1,0.1,0.2,0.1c0.1,0,0.2,0.1,0.2,0.1c1.4-1,2.4-2,3-3
		c0.6-1,1-2,1.4-3c0.3-1,0.6-2,0.9-2.9c0.3-0.9,0.9-1.8,1.7-2.7c0,0,0.3,0.2,0.8,0.4c0.5,0.2,1.1,0.5,1.7,0.8
		c0.6,0.3,1.2,0.6,1.7,0.8c0.5,0.3,0.8,0.4,0.8,0.4c0,0.4-0.1,1-0.4,1.7c-0.3,0.7-0.5,1.5-0.9,2.2c-0.3,0.8-0.6,1.5-0.9,2.2
		c-0.3,0.7-0.4,1.3-0.4,1.7c0,0.5,0,1.1,0.1,1.7c0.1,0.6,0.3,1.1,0.5,1.5c0.3,0.5,0.6,0.9,1,1.2c0.4,0.3,0.9,0.5,1.6,0.5
		c0.5,0,1.2-0.2,2.2-0.5c1-0.3,2-0.8,3.1-1.3c1.1-0.5,2.3-1.1,3.5-1.8c1.2-0.7,2.3-1.3,3.3-2c0.2-0.1,0.3-0.2,0.4-0.3v2.7
		c0,0.7,0.1,1.2,0.4,1.6c0.3,0.4,0.7,0.8,1.1,1.1c0.4,0.3,0.9,0.5,1.5,0.6c0.5,0.1,1.1,0.2,1.6,0.2c0.5,0,1.2-0.1,2.1-0.3
		c0.9-0.2,1.8-0.4,2.7-0.8c1-0.3,1.9-0.7,2.9-1.2c1-0.5,1.8-1,2.6-1.5c0.4-0.3,0.7-0.6,1-0.9c0,0.2,0,0.3,0,0.3
		c0,0.8,0.2,1.6,0.5,2.4c0.3,0.9,0.9,1.5,1.7,1.8c0.1,0,0.3,0,0.7,0c0.3,0,0.6,0,0.7,0c2,0,3.8-0.4,5.6-1.2c1.8-0.8,3.4-1.8,4.8-3.2
		c1.4-1.3,2.5-2.9,3.3-4.7c0.8-1.8,1.3-3.6,1.3-5.6l0.6-0.3l6.8-1.5c0.4-0.1,0.7-0.3,0.9-0.5c0.3-0.3,0.4-0.6,0.4-1
		c0-0.3-0.1-0.5-0.4-0.8c-0.2-0.2-0.5-0.3-0.7-0.3c-0.6,0-1.2,0.1-1.8,0.3c-0.9,0.4-1.5,0.6-1.9,0.7c-0.4,0.1-0.8,0.2-1.2,0.2
		c-0.4,0-0.8,0-1.3,0.1c-0.5,0-1.3,0.1-2.4,0.3c-0.2-0.3-0.5-0.5-1-0.8c-0.4-0.3-0.9-0.6-1.4-0.9c-0.5-0.3-1-0.5-1.5-0.7
		c-0.5-0.2-0.9-0.3-1.2-0.3c-1.6,0-3,0.3-4.2,0.8c-1.1,0.5-2.1,1.3-3,2.2c-0.9,0.9-1.6,2-2.3,3.1c-0.7,1.2-1.3,2.4-1.9,3.7l-0.4,1.6
		c0,0-0.1,0-0.1,0c-0.1,0-0.3,0.1-0.6,0.4c-0.3,0.3-0.6,0.5-0.9,0.8c-0.3,0.3-0.6,0.6-0.9,0.9c-0.3,0.3-0.4,0.5-0.5,0.5
		c-1.3,0.8-2.6,1.6-4,2.2c-1.4,0.7-2.9,1-4.3,1H133c-0.1-0.2-0.3-0.4-0.4-0.5c-0.1-0.2-0.2-0.4-0.3-0.6c0-0.1,0-0.4,0-0.9
		c0-0.4,0-0.7,0-0.9c0-0.4,0-0.9,0.1-1.6c0.1-0.7,0.2-1.4,0.3-2.2c0.1-0.8,0.3-1.6,0.5-2.4c0.2-0.8,0.4-1.6,0.7-2.3
		c0.3-0.7,0.6-1.2,0.9-1.6c0.3-0.4,0.7-0.6,1.1-0.6c0.4,0,0.8,0.1,1.2,0.2c0.4,0.1,0.8,0.2,1.2,0.2c0.2,0,0.5,0,0.8-0.1
		c0.3-0.1,0.6-0.1,0.8-0.2c0.3-0.1,0.5-0.3,0.7-0.4c0.2-0.2,0.3-0.4,0.3-0.7c0-0.6-0.3-1.1-0.8-1.5c-0.5-0.4-1-0.5-1.6-0.5
		c-0.1,0-0.3,0-0.5,0c-0.2,0-0.3,0.1-0.4,0.3v-0.3l2.4-5.8v-0.2c0,0,0-0.1,0-0.1c0,0,0-0.1,0-0.1c0-0.4-0.1-0.7-0.3-1.1
		c-0.2-0.4-0.5-0.6-1-0.6c-0.2,0-0.5,0.1-0.9,0.2c-0.4,0.1-0.6,0.3-0.8,0.6l-4.2,7.1l-0.3,0.3c-0.2,0-0.5,0-1,0
		c-0.5,0-0.9,0-1.4,0.1c-0.5,0-1,0.1-1.4,0.1c-0.5,0-0.8,0-0.9,0.1c-0.1,0-0.4,0-0.8,0.1c-0.4,0.1-0.8,0.2-1.3,0.2
		c-0.5,0.1-0.9,0.2-1.2,0.2c-0.4,0.1-0.6,0.1-0.7,0.1c-1.9,0.3-3.2,0.6-3.9,0.9c-0.7,0.3-1,0.6-0.8,0.8c0.1,0.2,0.6,0.4,1.4,0.6
		c0.8,0.2,1.7,0.3,2.9,0.3c1.1,0,2.2,0,3.4-0.1c1.2-0.1,2.2-0.3,3.2-0.6h1c0,0,0.1,0,0.2,0.1c0.1,0.1,0.1,0.1,0.1,0.1v0.2
		c0,0.2-0.1,0.5-0.3,0.8c-0.2,0.3-0.4,0.5-0.4,0.7l-1.3,5c-0.4,0.3-0.8,0.6-1.2,0.8c-0.2,0.1-0.4,0.3-0.7,0.5
		c-0.2,0.2-0.4,0.4-0.6,0.6l-4.8,2.9c-0.4,0.1-0.8,0.2-1.1,0.4c-0.4,0.2-0.7,0.3-1.1,0.5c-0.4,0.2-0.8,0.3-1.1,0.5
		c-0.4,0.1-0.8,0.2-1.2,0.2c-0.2,0-0.4,0-0.6,0c-0.2,0-0.3-0.2-0.2-0.5V141c0-0.7,0.1-1.5,0.2-2.4c0.2-0.9,0.3-1.8,0.5-2.7
		c0.2-0.9,0.3-1.8,0.5-2.6c0.2-0.9,0.2-1.6,0.2-2.3c0-0.8-0.1-1.3-0.4-1.8c-0.3-0.4-0.7-0.8-1.4-1.2c-0.6-0.3-1.2-0.6-2-0.8
		c-0.8-0.3-1.5-0.5-2.1-0.7c-0.7-0.2-1.2-0.4-1.7-0.6c-0.5-0.2-0.7-0.3-0.6-0.5c-0.4,0-0.7,0.1-0.9,0.4c-0.3,0.3-0.5,0.6-0.7,0.9
		c-0.2,0.3-0.3,0.7-0.4,1.1c-0.1,0.4-0.1,0.7-0.1,1c0,0.3,0,0.5,0,0.7c0,0.2,0.1,0.4,0.2,0.7c-0.4,1-0.7,1.9-0.9,2.7
		c-0.2,0.8-0.4,1.6-0.7,2.3c-0.3,0.7-0.7,1.4-1.2,2.2c0,0,0,0,0,0c-0.1-0.1-0.3-0.2-0.5-0.2c-0.4,0-0.7,0.1-1,0.4
		c-0.3,0.3-0.6,0.6-0.9,1c-0.3,0.4-0.6,0.7-0.8,1.1c-0.3,0.3-0.5,0.6-0.7,0.8c-1.3,1.1-2.7,1.8-4.3,2.3c-1.6,0.5-3.2,0.7-4.9,0.7
		c-0.6,0-1.1,0-1.6-0.1c-0.5-0.1-0.9-0.2-1.3-0.4c-0.4-0.2-0.7-0.6-0.9-1c-0.2-0.4-0.3-0.9-0.3-1.6v-0.1c0-0.1,0-0.3,0.1-0.5
		c0.1-0.3,0.1-0.4,0.2-0.5c1.2-1,2.2-1.9,3.1-2.8c0.9-0.9,1.7-1.8,2.3-2.9c0.6-1,1.1-2.1,1.4-3.3c0.3-1.2,0.5-2.6,0.5-4.1
		c0-0.1,0-0.4,0-0.8c0-0.4,0-0.6,0-0.8c-0.1-0.4-0.3-0.8-0.5-1.1c-0.2-0.3-0.5-0.5-1-0.5c-1.3,0-2.3,0.3-3.2,0.8
		c-0.9,0.6-1.5,1.3-2.1,2.1c-0.5,0.9-1,1.8-1.3,2.8c-0.3,1-0.6,2-0.8,2.8c-0.1,0.2-0.2,0.6-0.3,1.2c-0.1,0.6-0.3,1.2-0.4,1.9
		c-0.2,0.7-0.3,1.3-0.5,1.8c-0.2,0.6-0.3,1-0.4,1.2l-0.1,0.9c-0.7,0.5-1.3,0.8-2,1l-7.9,2.1h-0.5c0.2-0.7,0.4-1.5,0.5-2.3
		c0.1-0.8,0.2-1.6,0.2-2.3c0-0.7-0.1-1.5-0.2-2.3c-0.1-0.9-0.4-1.7-0.7-2.4c-0.3-0.8-0.8-1.5-1.3-2.1c-0.6-0.6-1.2-1-2-1.2
		c-0.1,0-0.4,0-0.8-0.1c-0.4,0-0.7-0.1-0.8-0.1c-1.5,0-2.9,0.4-4.2,1.2c-1.3,0.8-2.4,1.8-3.4,2.9c0.6-1.6,1.2-2.9,1.9-4.1
		c0.6-1.2,1.2-2.4,1.7-3.6c0.5-1.2,0.9-2.5,1.2-3.9c0.3-1.4,0.5-3,0.5-4.9c0-0.1,0-0.3,0-0.5c0-0.2,0-0.4,0-0.7c0-0.2,0-0.5,0-0.7
		c0-0.2,0-0.4,0-0.4c-0.1-0.4-0.3-0.6-0.5-0.8c-0.3-0.2-0.6-0.3-0.9-0.3c-0.3,0-0.5,0-0.7,0.1c-0.2,0.1-0.4,0.3-0.5,0.6l-1.8,4.6
		c-0.5,2.4-0.9,4.5-1.3,6.1c-0.4,1.7-0.7,3.1-1,4.2c-0.3,1.1-0.5,2.1-0.7,2.9c-0.2,0.8-0.4,1.4-0.6,2c-0.2,0.6-0.4,1.1-0.5,1.7
		c-0.2,0.5-0.4,1.2-0.6,1.9c-0.2,0.5-0.4,1.2-0.6,1.9c-0.2-0.2-0.4-0.3-0.7-0.3c-0.3,0-0.8,0.2-1.5,0.5c-0.7,0.3-1.3,0.7-2,1.1
		c-0.7,0.4-1.3,0.8-2,1.1c-0.6,0.3-1.1,0.5-1.4,0.5c-0.6,0-1.3,0-1.9-0.1c-0.7-0.1-1.3-0.2-1.8-0.4c-0.5-0.2-1-0.5-1.4-0.9
		c-0.4-0.4-0.6-1-0.6-1.7v-0.1c0-0.1,0.1-0.4,0.1-0.7c0.1-0.3,0.1-0.5,0.1-0.7c1.4-1.2,2.7-2.5,3.9-4c1.2-1.5,2.3-3.1,3.2-4.8
		c0.9-1.7,1.6-3.5,2.1-5.3c0.5-1.9,0.8-3.7,0.8-5.6c0-0.2,0-0.5-0.1-0.8c0-0.3-0.1-0.6-0.2-0.8c-0.1-0.2-0.2-0.4-0.4-0.6
		c-0.2-0.2-0.5-0.3-0.8-0.3c-0.6,0-1.3,0.3-2,0.8c-0.7,0.6-1.4,1.2-2.1,2c-0.7,0.7-1.3,1.5-1.8,2.4c-0.5,0.8-0.9,1.5-1.2,2
		c-0.1,0.3-0.3,0.7-0.5,1.3c-0.3,0.6-0.5,1.2-0.8,1.7c-0.3,0.6-0.5,1.1-0.7,1.6c-0.2,0.5-0.3,0.8-0.4,1c-0.1,0.3-0.3,0.8-0.5,1.6
		c-0.2,0.8-0.5,1.7-0.7,2.6c-0.3,0.9-0.5,1.8-0.7,2.6c-0.2,0.8-0.4,1.4-0.4,1.7c0,0-0.1,0.1-0.2,0.2l-0.2,1.5l-10,4.6
		c-0.4,0.1-0.7,0.2-1.1,0.2c-0.3,0-0.7,0-1.1,0c-0.1,0-0.3,0-0.5,0c-0.3,0-0.5,0-0.5,0c0-0.1-0.1-0.3-0.1-0.6
		c-0.1-0.3-0.1-0.6-0.1-0.6V141c0-1,0.1-1.9,0.3-2.8c0.2-0.9,0.4-1.8,0.7-2.7c0.2-0.9,0.5-1.8,0.7-2.7c0.2-0.9,0.3-1.8,0.3-2.7
		c0-0.7-0.1-1.4-0.2-2.1c-0.1-0.7-0.3-1.3-0.7-1.8c-0.3-0.5-0.7-1-1.2-1.3c-0.5-0.3-1.2-0.5-2-0.5h-1c-2.2,0.3-4.2,0.9-6,2.1
		c-1.8,1.1-3.3,2.6-4.5,4.2c-1.2,1.7-2,3.6-2.4,5.7c-0.5,2.1-0.4,4.2,0.2,6.4C11.2,142.9,11.2,143.2,11.2,143.6z M148.3,141.4
		c0-0.4,0-0.9,0.1-1.4c0-0.5,0.1-1,0.2-1.5c0.1-0.5,0.2-1,0.3-1.4c0.1-0.4,0.3-0.8,0.6-1l4.5-4.8h0.1c1.1,0,2.2,0.1,3.4,0.3
		c1.2,0.2,2.3,0.3,3.5,0.3c0,1.4-0.4,2.7-1.1,4.1c-0.7,1.4-1.6,2.6-2.7,3.6c-1.1,1.1-2.3,1.9-3.7,2.6c-1.4,0.7-2.7,1-4,1
		c-0.1,0-0.3,0-0.5,0c-0.3,0-0.4-0.1-0.4-0.3c0-0.1-0.1-0.4-0.1-0.8C148.3,141.7,148.3,141.5,148.3,141.4z M89.3,132.1
		c0.2-0.7,0.4-1.3,0.6-1.8c0.2-0.6,0.6-1.1,1-1.6c0.4-0.5,1-1.1,1.7-1.8c-0.1,0.9-0.2,1.6-0.3,2.3c-0.1,0.7-0.4,1.3-0.7,1.9
		c-0.3,0.6-0.7,1.1-1.1,1.7c-0.5,0.5-1,1.1-1.7,1.6C89,133.5,89.1,132.8,89.3,132.1z M62.4,136c0.5-0.8,1.1-1.5,1.7-2.2
		c0.7-0.7,1.4-1.3,2.1-1.7c0.8-0.5,1.5-0.7,2.3-0.7c0.6,0,1.1,0.1,1.6,0.4c0.5,0.3,0.8,0.7,1.1,1.1c0.3,0.5,0.4,1,0.5,1.5
		c0.1,0.6,0.2,1.1,0.2,1.6c0,0.5,0,1,0,1.5c0,0.5,0,1.1-0.1,1.6c-0.1,0.5-0.2,1-0.4,1.5c-0.2,0.5-0.5,0.9-0.8,1.2h-1.1
		c-1.3,0-2.2-0.2-2.9-0.7c-0.7-0.4-1.2-0.9-1.7-1.5c-0.4-0.5-0.8-1-1.2-1.5c-0.3-0.5-0.8-0.7-1.3-0.7c-0.2,0-0.4,0-0.5,0
		c-0.2,0-0.3,0.1-0.5,0.2C61.6,137.5,61.9,136.8,62.4,136z M45.4,130.8c0.2-0.6,0.4-1.2,0.6-1.8c0.2-0.6,0.4-1.2,0.7-1.8
		c0.2-0.6,0.4-1,0.5-1.2c0-0.2,0.2-0.6,0.5-1.3c0.3-0.6,0.7-1.3,1.1-2c0.4-0.7,0.8-1.3,1.2-1.8c0.4-0.5,0.8-0.8,1.1-0.8v0.6
		c0,0.1-0.1,0.4-0.2,0.8c-0.2,0.5-0.4,1.1-0.6,1.7c-0.2,0.7-0.5,1.3-0.7,2c-0.3,0.7-0.5,1.2-0.6,1.6c-0.1,0.1-0.2,0.4-0.5,0.8
		c-0.3,0.5-0.5,0.8-0.6,1c-0.1,0.3-0.4,0.6-0.7,0.9c-0.3,0.4-0.6,0.8-0.9,1.1c-0.3,0.4-0.6,0.8-1.1,1.4H45
		C45.1,131.8,45.2,131.4,45.4,130.8z M14.2,141.9l1.3-6.4c0-0.1,0.1-0.2,0.2-0.4c0.1-0.2,0.2-0.3,0.3-0.5c0.1-0.2,0.2-0.3,0.4-0.5
		c0.1-0.1,0.2-0.2,0.2-0.2c0.2-0.2,0.5-0.5,1-1c0.5-0.5,1-1,1.6-1.6c0.6-0.6,1.1-1.1,1.6-1.6c0.5-0.5,0.9-0.8,1.1-1
		c0.1,0,0.2-0.1,0.5-0.1c0.2,0,0.4,0,0.5,0c0.5,0,1,0,1.3,0.1c0.3,0.1,0.7,0.3,1.2,0.7c0,0.1,0,0.2,0,0.3c0,0.1,0,0.3,0,0.3
		c0,1.1-0.1,2.1-0.4,3.1c-0.3,1-0.4,2-0.5,3.1c-0.4,0.7-1.1,1.4-1.8,2.2c-0.8,0.8-1.7,1.6-2.7,2.3c-1,0.7-2,1.3-3,1.8
		s-1.9,0.7-2.8,0.7V141.9z"/>
	<path class="st0" d="M62.4,160.5c0.3-0.3,0.4-0.6,0.4-1c0-0.3-0.1-0.5-0.4-0.8c-0.2-0.2-0.5-0.3-0.7-0.3c-0.6,0-1.2,0.1-1.8,0.3
		c-0.9,0.4-1.5,0.6-1.9,0.7c-0.4,0.1-0.8,0.2-1.2,0.2c-0.4,0-0.8,0-1.3,0.1c-0.5,0-1.3,0.1-2.4,0.3c-0.2-0.3-0.5-0.5-1-0.8
		c-0.4-0.3-0.9-0.6-1.4-0.9c-0.5-0.3-1-0.5-1.5-0.7c-0.5-0.2-0.9-0.3-1.2-0.3c-1.6,0-3,0.3-4.2,0.8c-1.1,0.5-2.1,1.3-3,2.2
		c-0.9,0.9-1.6,2-2.3,3.1c-0.7,1.2-1.3,2.4-1.9,3.7l-0.2,1.1c-0.1-0.2-0.4-0.3-0.7-0.3h-0.3c-3.5,1.8-7.2,3.4-11.1,4.7
		c-3.9,1.3-7.8,1.9-11.9,2l0.8-2.9c1.1-1.2,2.2-2.5,3.2-4c1-1.5,1.9-3.1,2.6-4.8c0.7-1.7,1.3-3.4,1.8-5.1c0.5-1.7,0.7-3.4,0.7-5.1
		c0-0.2,0-0.4-0.1-0.7c-0.1-0.3-0.1-0.6-0.3-0.8c-0.1-0.3-0.3-0.5-0.5-0.7c-0.2-0.2-0.4-0.3-0.7-0.3c-0.6,0-1.2,0.3-1.8,0.8
		c-0.6,0.6-1.2,1.2-1.7,2c-0.5,0.8-1,1.6-1.4,2.4c-0.4,0.8-0.7,1.4-0.8,1.9l-4,12.7c-0.1,0.1-0.3,0.4-0.4,0.9
		c-0.1,0.4-0.3,1-0.4,1.8c-0.2,0.8-0.4,1.8-0.7,3.2l-1.9,17c0,0,0,0.1,0,0.3s0,0.4,0,0.6c0,0.2,0,0.5,0,0.7c0,0.2,0,0.4,0,0.5
		c0,0.4,0,0.9,0,1.5c0,0.6,0,1.1,0.1,1.7c0.1,0.5,0.3,1,0.6,1.4c0.3,0.4,0.7,0.6,1.4,0.6c0.7,0,1.4-0.2,2.1-0.7
		c0.7-0.4,1.4-0.9,1.9-1.2c2.1-1.8,3.9-3.8,5.2-5.9c1.3-2.1,2-4.6,2-7.4c0-1.1-0.1-2-0.2-2.7c-0.1-0.7-0.3-1.2-0.6-1.7
		c-0.3-0.5-0.6-1-1.1-1.4c-0.4-0.5-1-1.1-1.6-1.8c3.3-0.6,6.6-1.4,9.9-2.6c3.3-1.1,6.3-2.6,9.2-4.3c0.1,0,0.2-0.1,0.2-0.1l-0.1,0.4
		v0.3v0.2c0,0.1,0,0.2-0.1,0.4c0,0.2-0.1,0.4-0.1,0.7c0,0.2-0.1,0.5-0.1,0.7c0,0.2-0.1,0.3-0.1,0.4c0,0.8,0.2,1.6,0.5,2.4
		c0.3,0.9,0.9,1.5,1.7,1.8c0.1,0,0.3,0,0.7,0c0.3,0,0.6,0,0.7,0c2,0,3.8-0.4,5.6-1.2c1.8-0.8,3.4-1.8,4.8-3.2
		c1.4-1.3,2.5-2.9,3.3-4.7c0.8-1.8,1.3-3.6,1.3-5.6l0.6-0.3l6.8-1.5C61.9,161,62.2,160.8,62.4,160.5z M15.4,163.6
		c0,0,0.1-0.2,0.2-0.6c0.1-0.3,0.2-0.7,0.4-1.2c0.1-0.5,0.3-0.9,0.4-1.4c0.1-0.5,0.3-0.8,0.4-1.1c0.1-0.2,0.2-0.5,0.3-0.8
		c0.1-0.4,0.3-0.7,0.4-1c0.2-0.3,0.3-0.6,0.4-0.9c0.1-0.3,0.2-0.4,0.2-0.4l0.2-0.3c-0.1,1.4-0.4,2.7-1,4.1c-0.6,1.4-1.2,2.7-1.9,3.9
		V163.6z M17.6,182.5c0.2,0.7,0.3,1.6,0.2,2.6c0,0.8-0.3,1.9-0.8,3.1c-0.5,1.3-1.1,2.5-1.8,3.7c-0.7,1.2-1.5,2.2-2.5,3.1
		c-0.9,0.9-1.9,1.3-2.9,1.3c0-1.3,0.1-2.7,0.2-4.2c0.1-1.5,0.2-3,0.4-4.5c0.1-1.5,0.3-2.9,0.5-4.3c0.2-1.4,0.3-2.7,0.5-3.8
		c0.1-0.3,0.2-0.5,0.3-0.7c0.1-0.2,0.3-0.3,0.5-0.3h0.3c0.9,0.3,1.8,0.7,2.4,1c0.7,0.3,1.2,0.7,1.7,1.2
		C17,181.2,17.4,181.8,17.6,182.5z M50.5,167.3c-0.7,1.4-1.6,2.6-2.7,3.6c-1.1,1.1-2.3,1.9-3.7,2.6c-1.4,0.7-2.7,1-4,1
		c-0.1,0-0.3,0-0.5,0c-0.3,0-0.4-0.1-0.4-0.3c0-0.1-0.1-0.4-0.1-0.8c0-0.4,0-0.7,0-0.8c0-0.4,0-0.9,0.1-1.4c0-0.5,0.1-1,0.2-1.5
		c0.1-0.5,0.2-1,0.3-1.4c0.1-0.4,0.3-0.8,0.6-1l4.5-4.8h0.1c1.1,0,2.2,0.1,3.4,0.3c1.2,0.2,2.3,0.3,3.5,0.3
		C51.6,164.6,51.2,165.9,50.5,167.3z"/>
	<path class="st0" d="M122.7,169.9c0-0.3,0-0.6-0.1-0.9c-0.1-0.3-0.3-0.4-0.7-0.4c-0.4,0-0.7,0.1-1,0.4c-0.3,0.3-0.6,0.6-0.9,1
		c-0.3,0.4-0.6,0.7-0.8,1.1c-0.3,0.3-0.5,0.6-0.7,0.8c-1.3,1.1-2.7,1.8-4.3,2.3c-1.6,0.5-3.2,0.7-4.9,0.7c-0.6,0-1.1,0-1.6-0.1
		c-0.5-0.1-0.9-0.2-1.3-0.4c-0.4-0.2-0.7-0.6-0.9-1c-0.2-0.4-0.3-0.9-0.3-1.6v-0.1c0-0.1,0-0.3,0.1-0.5c0.1-0.3,0.1-0.4,0.2-0.5
		c1.2-1,2.2-1.9,3.1-2.8c0.9-0.9,1.7-1.8,2.3-2.9c0.6-1,1.1-2.1,1.4-3.3c0.3-1.2,0.5-2.6,0.5-4.1c0-0.1,0-0.4,0-0.8
		c0-0.4,0-0.6,0-0.8c-0.1-0.4-0.3-0.8-0.5-1.1c-0.2-0.3-0.5-0.5-1-0.5c-1.3,0-2.3,0.3-3.2,0.8c-0.9,0.6-1.5,1.3-2.1,2.1
		c-0.5,0.9-1,1.8-1.3,2.8c-0.3,1-0.6,2-0.8,2.8c-0.1,0.2-0.2,0.6-0.3,1.2c-0.1,0.6-0.3,1.2-0.4,1.9c-0.2,0.7-0.3,1.3-0.5,1.8
		c-0.2,0.6-0.3,1-0.4,1.2l0,0.1c-0.3,0.2-0.5,0.5-0.9,0.8c-0.3,0.3-0.6,0.6-0.9,0.9c-0.3,0.3-0.4,0.5-0.5,0.5
		c-1.3,0.8-2.6,1.6-4,2.2c-1.4,0.7-2.9,1-4.3,1h-1.2c-0.1-0.2-0.3-0.4-0.4-0.5c-0.1-0.2-0.2-0.4-0.3-0.6c0-0.1,0-0.4,0-0.9
		c0-0.4,0-0.7,0-0.9c0-0.4,0-0.9,0.1-1.6c0.1-0.7,0.2-1.4,0.3-2.2c0.1-0.8,0.3-1.6,0.5-2.4c0.2-0.8,0.4-1.6,0.7-2.3
		c0.3-0.7,0.6-1.2,0.9-1.6c0.3-0.4,0.7-0.6,1.1-0.6c0.4,0,0.8,0.1,1.2,0.2c0.4,0.1,0.8,0.2,1.2,0.2c0.2,0,0.5,0,0.8-0.1
		c0.3-0.1,0.6-0.1,0.8-0.2c0.3-0.1,0.5-0.3,0.7-0.4c0.2-0.2,0.3-0.4,0.3-0.7c0-0.6-0.3-1.1-0.8-1.5c-0.5-0.4-1-0.5-1.6-0.5
		c-0.1,0-0.3,0-0.5,0c-0.2,0-0.3,0.1-0.4,0.3v-0.3l2.4-5.8v-0.2c0,0,0-0.1,0-0.1c0,0,0-0.1,0-0.1c0-0.4-0.1-0.7-0.3-1.1
		c-0.2-0.4-0.5-0.6-1-0.6c-0.2,0-0.5,0.1-0.9,0.2c-0.4,0.1-0.6,0.3-0.8,0.6l-4.2,7.1l-0.3,0.3c-0.2,0-0.5,0-1,0
		c-0.5,0-0.9,0-1.4,0.1c-0.5,0-1,0.1-1.4,0.1c-0.5,0-0.8,0-0.9,0.1c-0.1,0-0.4,0-0.8,0.1c-0.4,0.1-0.8,0.2-1.3,0.2
		c-0.5,0.1-0.9,0.2-1.2,0.2c-0.4,0.1-0.6,0.1-0.7,0.1c-1.7,0.3-3,0.6-3.7,0.9c0-1-0.3-1.8-0.9-2.5c-0.6-0.7-1.4-1-2.5-1
		c-0.5,0-1,0.1-1.6,0.4c-0.6,0.3-1,0.6-1.4,0.9c-0.1,0.1-0.3,0.4-0.7,0.7c-0.4,0.3-0.8,0.7-1.2,1c-0.4,0.4-0.8,0.7-1.2,1
		c-0.4,0.3-0.6,0.5-0.8,0.7v-3.7c0-0.3-0.2-0.6-0.6-0.8c-0.4-0.2-0.7-0.3-1-0.3c-0.1,0-0.3,0-0.6,0c-0.3,0-0.5,0.1-0.6,0.2l-1.1,7.2
		v1.5l-1.8,10.9v0.2c0,0.4,0.2,0.7,0.5,0.8c0.3,0.1,0.7,0.2,1,0.2c0.1,0,0.3,0,0.6,0c0.2,0,0.5,0,0.7-0.1c0.2-0.1,0.4-0.1,0.6-0.2
		c0.2-0.1,0.2-0.3,0.2-0.5c0-0.3,0.1-0.8,0.2-1.4c0.1-0.7,0.2-1.3,0.4-2.1c0.1-0.7,0.3-1.4,0.4-2.1c0.1-0.7,0.3-1.1,0.3-1.4
		c0.2-0.7,0.6-1.6,1.1-2.8c0.5-1.1,1.1-2.2,1.7-3.3c0.7-1.1,1.4-2,2.3-2.8c0.9-0.8,1.7-1.1,2.6-1.1v1.8l-2.1,10.5v0.7
		c0,0.6,0,1.1,0.1,1.6c0.1,0.5,0.2,1,0.4,1.4c0.2,0.4,0.5,0.8,0.9,1c0.4,0.3,0.9,0.4,1.6,0.4c0.7,0,1.5-0.1,2.5-0.4c1-0.3,2-0.6,3-1
		c1-0.4,2.1-1,3.1-1.6c1.1-0.6,2-1.3,2.8-2c0,0,0.1,0,0.1-0.1v1.8c0,0.7,0.1,1.2,0.4,1.6c0.3,0.4,0.7,0.8,1.1,1.1
		c0.4,0.3,0.9,0.5,1.5,0.6c0.5,0.1,1.1,0.2,1.6,0.2c0.5,0,1.2-0.1,2.1-0.3c0.9-0.2,1.8-0.4,2.7-0.8c1-0.3,1.9-0.7,2.9-1.2
		c1-0.5,1.8-1,2.6-1.5c0.3-0.2,0.6-0.4,0.8-0.7c0.5,1.7,1.3,2.9,2.5,3.5c1.3,0.6,2.9,0.9,4.8,0.9c0.6,0,1.4-0.1,2.3-0.2
		c0.9-0.1,1.8-0.4,2.8-0.7c1-0.3,2-0.7,3-1.1c1-0.4,1.9-0.9,2.7-1.5c0.8-0.6,1.4-1.2,1.9-1.9S122.7,170.7,122.7,169.9z M106.7,163.5
		c0.2-0.7,0.4-1.3,0.6-1.8c0.2-0.6,0.6-1.1,1-1.6c0.4-0.5,1-1.1,1.7-1.8c-0.1,0.9-0.2,1.6-0.3,2.3c-0.1,0.7-0.4,1.3-0.7,1.9
		c-0.3,0.6-0.7,1.1-1.1,1.7c-0.5,0.5-1,1.1-1.7,1.6C106.4,164.9,106.6,164.1,106.7,163.5z M88.5,161.4c0,0.2-0.1,0.5-0.3,0.8
		c-0.2,0.3-0.4,0.5-0.4,0.7l-1.4,5.1v0.6c-0.3,0.3-0.6,0.6-0.9,0.9c-1,0.9-2,1.7-3.1,2.4c-1.1,0.7-2.3,1.3-3.5,1.7
		c-1.2,0.5-2.4,0.7-3.5,0.7v-4.4l1.9-8.5c0.2,0.1,0.4,0.1,0.6,0.2c0.8,0.2,1.7,0.3,2.9,0.3c1.1,0,2.2,0,3.4-0.1
		c1.2-0.1,2.2-0.3,3.2-0.6h1c0,0,0.1,0,0.2,0.1c0.1,0.1,0.1,0.1,0.1,0.1V161.4z"/>
	<path class="st0" d="M193,169c-0.1-0.3-0.3-0.4-0.7-0.4c-0.4,0-0.7,0.1-1,0.4c-0.3,0.3-0.6,0.6-0.9,1c-0.3,0.4-0.6,0.7-0.8,1.1
		c-0.3,0.3-0.5,0.6-0.7,0.8c-1.3,1.1-2.7,1.8-4.3,2.3c-1.6,0.5-3.2,0.7-4.9,0.7c-0.6,0-1.1,0-1.6-0.1c-0.5-0.1-0.9-0.2-1.3-0.4
		c-0.4-0.2-0.7-0.6-0.9-1c-0.2-0.4-0.3-0.9-0.3-1.6v-0.1c0-0.1,0-0.3,0.1-0.5c0.1-0.3,0.1-0.4,0.2-0.5c1.2-1,2.2-1.9,3.1-2.8
		c0.9-0.9,1.7-1.8,2.3-2.9c0.6-1,1.1-2.1,1.4-3.3c0.3-1.2,0.5-2.6,0.5-4.1c0-0.1,0-0.4,0-0.8c0-0.4,0-0.6,0-0.8
		c-0.1-0.4-0.3-0.8-0.5-1.1c-0.2-0.3-0.5-0.5-1-0.5c-1.3,0-2.3,0.3-3.2,0.8c-0.9,0.6-1.5,1.3-2.1,2.1c-0.5,0.9-1,1.8-1.3,2.8
		c-0.3,1-0.6,2-0.8,2.8c-0.1,0.2-0.2,0.6-0.3,1.2c-0.1,0.6-0.3,1.2-0.4,1.9c0,0,0,0.1,0,0.1c-0.1-0.1-0.2-0.1-0.3-0.1
		c0,0-0.2,0.1-0.5,0.2c-0.3,0.1-0.5,0.2-0.5,0.3c-0.1,0.1-0.2,0.2-0.5,0.4c-0.3,0.2-0.6,0.4-0.8,0.7c-0.3,0.2-0.6,0.5-0.8,0.7
		c-0.3,0.2-0.4,0.3-0.5,0.4c-0.4,0.3-1,0.6-1.7,0.9c-0.7,0.4-1.5,0.8-2.3,1.1c-0.8,0.4-1.7,0.7-2.5,0.9c-0.8,0.3-1.5,0.4-2.1,0.4
		c0-1,0-1.9,0.1-2.8c0.1-0.9,0.2-1.7,0.4-2.6c0.2-0.9,0.4-1.7,0.6-2.6c0.2-0.9,0.5-1.8,0.7-2.9v-2.3c0-0.2-0.1-0.3-0.2-0.4
		c-0.1-0.1-0.3-0.2-0.5-0.2c-0.2-0.1-0.4-0.1-0.6-0.1c-0.2,0-0.3,0-0.4,0c-0.3,0-0.8,0.3-1.6,1c-0.8,0.6-1.7,1.4-2.6,2.2
		c-1,0.8-1.9,1.6-2.8,2.4c-0.9,0.8-1.6,1.3-2.2,1.7c-0.1-0.3-0.4-0.4-0.6-0.5c-0.3-0.1-0.6-0.1-0.9-0.1c-0.7,0-1.1,0.2-1.3,0.7
		c-0.2,0.4-0.2,0.9-0.1,1.4c0,0,0,0-0.1,0h-0.2c0,0.1-0.1,0.1-0.2,0.2c-0.3,0-0.6,0-0.9,0c-0.5,0.1-0.9,0.3-1.4,0.5
		c-0.4,0.3-0.8,0.6-1.1,0.9c-0.3,0.4-0.5,0.7-0.6,1c-0.1,0.3,0,0.5,0.2,0.7c0.1,0.1,0.2,0.1,0.3,0.1c-0.7,0.5-1.4,1-2.1,1.5
		c-1.1,0.7-2.3,1.3-3.5,1.7c-1.2,0.5-2.4,0.7-3.5,0.7v-4.4l2.1-9.3v-0.2c0-0.1,0-0.1,0-0.1c0,0,0-0.1,0-0.1c0-1-0.3-1.8-0.9-2.5
		c-0.6-0.7-1.4-1-2.5-1c-0.5,0-1,0.1-1.6,0.4c-0.6,0.3-1,0.6-1.4,0.9c-0.1,0.1-0.3,0.4-0.7,0.7c-0.4,0.3-0.8,0.7-1.2,1
		c-0.4,0.4-0.8,0.7-1.2,1c-0.4,0.3-0.6,0.5-0.8,0.7v-3.7c0-0.3-0.2-0.6-0.6-0.8c-0.4-0.2-0.7-0.3-1-0.3c-0.1,0-0.3,0-0.6,0
		c-0.3,0-0.5,0.1-0.6,0.2l-1.1,7.2v1.5l-1.8,10.9v0.2c0,0.4,0.2,0.7,0.5,0.8c0.3,0.1,0.7,0.2,1,0.2c0.1,0,0.3,0,0.6,0
		c0.2,0,0.5,0,0.7-0.1c0.2-0.1,0.4-0.1,0.6-0.2c0.2-0.1,0.2-0.3,0.2-0.5c0-0.3,0.1-0.8,0.2-1.4c0.1-0.7,0.2-1.3,0.4-2.1
		c0.1-0.7,0.3-1.4,0.4-2.1c0.1-0.7,0.3-1.1,0.3-1.4c0.2-0.7,0.6-1.6,1.1-2.8c0.5-1.1,1.1-2.2,1.7-3.3c0.7-1.1,1.4-2,2.3-2.8
		c0.9-0.8,1.7-1.1,2.6-1.1v1.8l-2.1,10.5v0.7c0,0.6,0,1.1,0.1,1.6c0.1,0.5,0.2,1,0.4,1.4c0.2,0.4,0.5,0.8,0.9,1
		c0.4,0.3,0.9,0.4,1.6,0.4c0.7,0,1.5-0.1,2.5-0.4c1-0.3,2-0.6,3-1c1-0.4,2.1-1,3.1-1.6c1.1-0.6,2-1.3,2.8-2c0.8-0.7,1.5-1.4,2-2.2
		c0,0,0,0,0-0.1c0.3,0,0.5-0.1,0.8-0.2c0.6,0.8,1.1,1.4,1.5,2.1c0.5,0.6,0.9,1.2,1.4,1.7c0.5,0.5,1.1,1.1,1.7,1.6
		c0.6,0.5,1.4,1.1,2.2,1.7c0.1,0.1,0.2,0.2,0.5,0.3c0.3,0.1,0.4,0.2,0.5,0.2c0.5,0.1,0.9,0,1.1-0.2c0.2-0.2,0.4-0.4,0.6-0.7
		c0.2-0.3,0.3-0.5,0.5-0.8c0.2-0.3,0.4-0.4,0.7-0.5c0.1,0,0.2-0.1,0.5-0.1c0.3-0.1,0.6-0.1,0.8-0.2c0.3-0.1,0.6-0.2,0.8-0.2
		c0.3-0.1,0.4-0.1,0.5-0.1c0.3-0.1,0.8-0.4,1.5-0.7c0.7-0.3,1.5-0.7,2.3-1c0.8-0.4,1.5-0.7,2.3-1c0.7-0.3,1.2-0.6,1.5-0.7
		c0.2-0.2,0.5-0.5,1-0.7c0.4-0.2,0.7-0.5,1.1-0.8l-0.2,3.1c0.5,1.9,1.3,3.2,2.6,3.8c1.3,0.6,2.9,0.9,4.8,0.9c0.6,0,1.4-0.1,2.3-0.2
		c0.9-0.1,1.8-0.4,2.8-0.7c1-0.3,2-0.7,3-1.1c1-0.4,1.9-0.9,2.7-1.5c0.8-0.6,1.4-1.2,1.9-1.9c0.5-0.7,0.7-1.5,0.7-2.3
		C193.1,169.6,193.1,169.3,193,169z M177.1,163.5c0.2-0.7,0.4-1.3,0.6-1.8c0.2-0.6,0.6-1.1,1-1.6c0.4-0.5,1-1.1,1.7-1.8
		c-0.1,0.9-0.2,1.6-0.3,2.3c-0.1,0.7-0.4,1.3-0.7,1.9c-0.3,0.6-0.7,1.1-1.1,1.7c-0.5,0.5-1,1.1-1.7,1.6
		C176.8,164.9,176.9,164.1,177.1,163.5z M158.4,165.5c-0.2,0.8-0.4,1.6-0.5,2.5c-0.1,0.8-0.3,1.6-0.4,2.4c-0.1,0.8-0.2,1.4-0.3,2
		c-0.6-0.1-1.1-0.3-1.5-0.6c-0.4-0.3-0.8-0.7-1.1-1.2c-0.3-0.5-0.6-0.9-0.8-1.4c-0.2-0.5-0.5-1-0.7-1.6c0.1-0.1,0.3-0.2,0.5-0.4
		c0.3-0.2,0.5-0.3,0.5-0.4c0,0,0.1,0,0.2-0.1c0.1-0.1,0.1-0.1,0.2-0.2c0.3-0.3,0.7-0.6,1.1-0.9c0.5-0.3,0.9-0.7,1.4-1.1
		c0.5-0.4,1-0.8,1.6-1.2h0.5C158.8,164,158.6,164.7,158.4,165.5z M159.1,163.1c-0.1,0-0.2-0.1-0.2-0.2s0.1-0.2,0.2-0.2
		c0.1,0,0.2,0.1,0.2,0.2S159.2,163.1,159.1,163.1z"/>
	<path class="st0" d="M181.4,130.9c-0.4,0.3-0.8,0.8-1.1,1.2c-0.5,0.8-0.8,1.6-0.7,2.4c0,0.8,0.4,1.5,1,2.2c0.9,1.1,2.3,1.8,3.7,2
		c0.3,0,0.6,0.1,0.9,0.1c1.6,0,2.8-0.6,3.3-1.7c0.3-0.6,0.4-1.3,0.5-1.9c0.1-1.3,0.1-2.7-0.6-4c-0.2-0.4-0.5-0.8-0.9-1
		c-0.6-0.5-1.4-0.7-2.5-0.7C183.7,129.6,182.4,130.1,181.4,130.9z M185.8,132.4c0,0,0,0,0.1,0.2c0.3,0.6,0.3,1.5,0.2,2.3
		c0,0.3-0.1,0.7-0.2,0.8c-0.1,0.1-0.5,0.2-1.3,0.1c-0.7-0.1-1.4-0.5-1.9-1c-0.2-0.2-0.3-0.4-0.3-0.6c0-0.1,0.1-0.4,0.2-0.6
		c0.2-0.2,0.3-0.4,0.5-0.6c0.5-0.4,1.2-0.7,2-0.7C185.6,132.4,185.8,132.4,185.8,132.4z"/>
</g>
</svg>
