<?xml version="1.0" encoding="iso-8859-1"?>
<!-- Generator: Adobe Illustrator 23.1.0, SVG Export Plug-In . SVG Version: 6.00 Build 0)  -->
<svg version="1.1" id="Layer_1" xmlns="http://www.w3.org/2000/svg" xmlns:xlink="http://www.w3.org/1999/xlink" x="0px" y="0px"
	 width="158.87px" height="140.478px" viewBox="0 0 158.87 140.478" enable-background="new 0 0 158.87 140.478"
	 xml:space="preserve">
<path fill="#FFFFFF" d="M80.628,15.931c15.231,0,30.493-0.612,45.686,0.153c19.678,0.991,24.966,10.512,18.498,28.884
	c-4.903,13.926-1.978,28.995-4.321,43.418c-1.512,9.304-2.696,18.606-6.715,27.252c-3.266,7.026-8.824,10.326-16.482,9.249
	c-26.309-3.702-52.874-5.921-78.614-13.011c-4.981-1.372-9.936-3.018-14.664-5.084c-6.237-2.726-9.509-7.691-8.963-14.693
	c0.377-4.843,1.125-9.659,1.424-14.505c0.458-7.419,1.789-14.081-2.229-22.06c-9.144-18.159,5.296-39.575,25.529-39.998
	c13.61-0.285,27.231-0.054,40.847-0.054C80.625,15.63,80.626,15.78,80.628,15.931z M25.102,39.175
	c4.213,15.639,2.2,29.523,2.118,43.294c-0.047,7.885,2.788,11.598,10.318,13.676c25.718,7.097,52.25,8.928,78.449,12.905
	c3.02,0.458,4.998-0.849,6.034-3.635c5.945-15.993,8.631-32.562,9.933-51.284c-16.876,10.642-32.213,20.152-47.379,29.927
	c-13.067,8.422-15.936,8.227-25.94-3.812C47.781,67.183,37.142,53.942,25.102,39.175z M32.189,27.79
	c8.536,9.493,15.238,16.866,21.848,24.32c6.205,6.996,11.291,18.165,18.737,20.028c8.268,2.068,16.16-8.651,24.546-13.253
	c11.905-6.533,23.435-13.743,34.008-22.339c1.641-1.334,4.093-2.631,2.823-5.433c-0.817-1.802-2.788-1.305-4.299-1.293
	C98.225,30.064,66.61,29.438,32.189,27.79z"/>
</svg>
