<?xml version="1.0" encoding="iso-8859-1"?>
<!-- Generator: Adobe Illustrator 23.1.0, SVG Export Plug-In . SVG Version: 6.00 Build 0)  -->
<svg version="1.1" id="Layer_1" xmlns="http://www.w3.org/2000/svg" xmlns:xlink="http://www.w3.org/1999/xlink" x="0px" y="0px"
	 width="158.87px" height="140.478px" viewBox="0 0 158.87 140.478" enable-background="new 0 0 158.87 140.478"
	 xml:space="preserve">
<path fill="#FFFFFF" d="M54.506,118.239c5.016-0.68,10.121-0.992,15.019-2.167c3.445-0.826,8.716-0.483,7.587-6.826
	c-1.152-6.469-5.549-5.148-9.989-4.478c-21.842,3.296-37.585-5.644-44.387-25.671C16.4,60.446,21.429,43.918,34.01,29.601
	C47.557,14.184,64.994,5.72,85.37,4.034c32.747-2.709,56.645,22.269,53.166,55.014c-2.822,26.552-16.997,45.781-38.778,60.014
	c-4.602,3.008-9.809,5.082-8.182,12.255c0.45,1.984,0.096,4.611-2.648,5.22c-2.584,0.574-4.152-1.264-4.934-3.33
	c-1.75-4.626-4.693-4.12-8.705-3.164c-8.486,2.022-17.132,3.229-25.901,1.388c-4.992-1.048-11.37-1.449-10.669-8.239
	c0.626-6.06,6.6-5.559,11.365-5.514c1.452,0.014,2.905,0.002,4.357,0.002C54.464,117.867,54.485,118.053,54.506,118.239z
	 M87.896,17.113c-24.403-0.067-48.697,17.48-54.372,39.273C28.177,76.918,44.506,96.3,63.025,91.798
	c6.332-1.539,7.313-4.082,5.15-9.894c-3.655-9.821-8.742-19.218-10.024-29.815c-1.488-12.3,3.377-17.85,15.545-18.098
	c14.071-0.287,24.951,6.903,30.584,20.211c5.1,12.047,2.24,26.289-7.581,36.088c-2.792,2.786-6.116,5.118-9.452,7.26
	c-3.831,2.459-2.954,5.739-1.422,8.537c2.288,4.182,5.05,0.921,7.143-0.499c17.353-11.777,28.798-27.56,31.086-48.793
	C126.651,32.695,112.246,17.18,87.896,17.113z M92.704,67.701c0.198-10.158-7.429-19.405-15.913-20.972
	c-5.711-1.055-8.793,0.885-7.5,6.819c1.539,7.064,3.44,14.093,5.829,20.912c1.204,3.436,0.656,9.32,5.338,9.461
	c4.336,0.131,7.299-4.363,9.295-8.303C91.208,72.747,92.031,69.556,92.704,67.701z"/>
<g>
</g>
<g>
</g>
<g>
</g>
<g>
</g>
<g>
</g>
<g>
</g>
<g>
</g>
<g>
</g>
<g>
</g>
<g>
</g>
<g>
</g>
<g>
</g>
<g>
</g>
<g>
</g>
<g>
</g>
</svg>
