<?xml version="1.0" encoding="utf-8"?>
<!-- Generator: Adobe Illustrator 26.0.1, SVG Export Plug-In . SVG Version: 6.00 Build 0)  -->
<svg version="1.1" id="Layer_1" xmlns="http://www.w3.org/2000/svg" xmlns:xlink="http://www.w3.org/1999/xlink" x="0px" y="0px"
	 width="202px" height="53px" viewBox="0 0 202 53" style="enable-background:new 0 0 202 53;" xml:space="preserve">
<style type="text/css">
	.st0{fill:#FFFFFF;}
</style>
<g>
	<path class="st0" d="M27,21.1c-4.6-0.2-9.3,0.2-14-0.3c-2.4-0.3-3.2-1.8-3.5-3.7c-0.4-3.4,1.1-6.5,4.2-7.6c2.6-0.9,4.9-1,7.5-1.1
		c3.3-0.2,5.8,1.2,8.1,3.5c1.2,1.2,2.4,2.3,3.7,3.4c1.8,1.6,4.3,0.4,4.8-1.8c0.3-1.5,0.4-2.7-0.5-3.9c-2.9-3.6-6.1-6.7-9.8-8
		c-3.7-1.3-8-0.2-12.5,0.6c-3.3,0.6-6.1,1.4-8.2,3.3c-2.2,1.9-3.1,4.4-3.8,7.9c-1.2,6.2,0.4,11.6,7.2,13.4c3.1,0.8,6.2,1.5,9.8,1.6
		c2.5-0.3,5.4-0.1,8.4,0.1c3.5,0.2,7.1,1.7,6.4,6.2c-0.1,0.6-0.2,7-5,8.8c-4.1,1.3-8.3,0.7-12.5,0.5c-4-0.2-7-1.8-9.3-5.4
		c-0.4-0.5-0.9-1.1-1.3-1.6c-1.2-1.3-3.1-0.7-4.3,0.2c-1.3,0.8-1.6,1.9-1,3.5C2.5,44.2,4.8,47,8,48.7c3.5,1.8,7.2,3,10.8,3.2
		c3.7,0.2,7.6,0,11.3-0.8c6-1.3,9.4-5.3,10.8-11.5c1.1-5,1.6-9.8-1.7-13.9C36.2,21.9,31.5,21.3,27,21.1z"/>
	<path class="st0" d="M93.2,5.7c-0.1-2.2-0.7-3.7-2.6-3.9c-1.5-0.2-2.4,1.1-3.1,3.2c-0.3,0.9-0.4,1.5-0.4,2.4
		c0,3.4-0.7,6.7-0.7,10.1c0,2.2-0.3,2.2-2.4,2.2c-3.8,0-7.6,1-11.4,1c-3.8,0-7.6-0.3-11.4-0.3c-2.3,0-2.1-0.7-2.1-3
		c0-3.6-0.9-7.1-1-10.7c-0.1-3.3-1.8-5.6-4.8-4c-1.7,0.9-2.6,1.9-2.6,3.5c0,3.3-0.4,6.6-0.4,9.9s-0.1,6.6-0.1,9.9c0,2.8,1,5.5,1,8.3
		c0,3.9-0.4,7.8-0.4,11.7c0,2.5,1.5,3.9,3.3,4.1c1.8,0.2,3.6-1.2,4-3.5c0.1-0.5,0.6-0.9,0.6-1.4c0-5,0.2-10,0.2-15
		c0-2.3-0.3-3.4,2.1-3.4c3.8,0,7.6,0.4,11.3,0.4c3.8,0,7.6,0.9,11.3,0.9c2.4,0,3.5-0.3,3.5,2.1c0,5-1,10-1,15c0,2.8,2.1,5.8,4.1,5.8
		c2.2,0.1,3-2.5,3-5.7c0-0.1,0.5-0.3,0.5-0.4c0-4.3,0.6-8.5,0.6-12.8s0.3-8.5,0.3-12.8S94,11.1,94,6.9C94,6.5,93.3,6.1,93.2,5.7z"/>
	<path class="st0" d="M149.6,9.8c-2.1-3-4.9-5.4-8.7-7.1c-3.4-1.5-6.9-1.3-10.3-1.5c-3.4-0.2-6.8-0.5-10.4,0.4
		c-4.1,1.1-7.5,2.8-10.1,5.3c-2.6,2.5-3.9,6-5.2,10c-1.6,5.2-2.1,10.2-0.9,15.6c1,4.3,2.5,7.8,5,10.7c2.5,2.9,5.7,4.8,10,6.2
		c4.6,1.4,9.1,3,14,2.3c5.4-0.8,10.7-2.5,14.7-6.4c2.6-2.6,4-5.9,5.1-9.1c1.1-3.2,1.3-6.6,1.4-10.2c-0.1-2,0.1-3.9-0.3-5.9
		C153,16.3,151.6,12.8,149.6,9.8z M144.9,35.8c-2.7,5.6-7.5,8.1-13.6,8.5c-0.9,0-1.8-0.1-3.1-0.1c-4.8,0.3-10.1,0-13.9-3.8
		c-2.9-2.8-3.7-7-4.1-10.8c-0.4-4.3-0.2-8.5,1.6-12.7c1.7-3.7,3.9-7.2,7.6-8.5c5.9-2.1,12.4-1.9,18.3,0.3c4.3,1.6,7.3,5.2,8.5,9.7
		C148,24.3,147.6,30.2,144.9,35.8z"/>
	<path class="st0" d="M198.9,10c-1.9-2.9-4.8-4.1-7.5-5.3c-2.8-1.2-5.6-2.5-8.9-2.6c-4.4-0.1-8.8-0.3-13.2-0.3
		c-4.2,0-5.5,2.2-5.5,6.4c0,3.1,0,6.1,0,9.2c0,3.1-0.3,6.1-0.3,9.2c0,3.1-1,6.2-1,9.3c0,3.1,1.1,10.8,1.4,11.7
		c0.7,2,1.7,3.8,3.2,3.6c1.9-0.3,3.1-2.2,3.1-4.4c0.1-3.3-0.6-6.5-0.6-9.8c0-2.5,1.2-3.2,3.6-3.2c3.1,0,6.1,0.1,9.2,0.2
		c2.4,0.1,4.9,0.3,7.3-0.4c5.2-1.6,8.4-5.5,10.1-9.7C201.5,19.4,201.6,14.3,198.9,10z M186.6,26.7c-4.7,0.8-9.3,1.2-14,1.3
		c-1.6,0.1-2.2-1.5-2.1-3c0-2.3,0.2-4.5,0.2-6.8c0-2.1-0.9-4.2-1-6.4c0-1.7,1.3-3.2,3.1-3.2c4.1,0,8.3,0,12.4,0.4
		c4.9,0.4,7.7,2.8,8.4,8.6C194.1,22,191.5,25.8,186.6,26.7z"/>
</g>
</svg>
